# xmcd
#
# Track frame offsets:
#	150
#	21677
#	37707
#	51975
#	66035
#	82300
#	102482
#	119317
#	133487
#	153875
#	170435
#	186800
#
# Disc length: 2676 seconds
#
# Revision: 1
# Processed by: cddbd v1.5.1PL0 Copyright (c) Steve Scherf et al.
# Submitted via: audiograbber 1.82.01
#
DISCID=aa0a720c
DTITLE=Manfred Maurenbrecher - Kakerlaken
DYEAR=1996
DGENRE=Pop
TTITLE0=Kakerlaken
TTITLE1=Super billig
TTITLE2=Anerkennung
TTITLE3=Der Dicke hat Geburtstag
TTITLE4=Wo Adler schrein
TTITLE5=Haut ab!
TTITLE6=Den einen mehr, den andern weniger
TTITLE7=Magdeburg '92
TTITLE8=Günter - nur darum
TTITLE9=Meine Fee ist da
TTITLE10=Alles geht zur Neige
TTITLE11=Das Land
EXTD=
EXTT0=
EXTT1=
EXTT2=
EXTT3=
EXTT4=
EXTT5=
EXTT6=
EXTT7=
EXTT8=
EXTT9=
EXTT10=
EXTT11=
PLAYORDER=
